# xmcd
#
# Track frame offsets: 
#        150
#        12589
#        28267
#        42961
#        57945
#        72184
#        86177
#        98550
#        111982
#        125365
#        138059
#        153209
#        167731
#        181829
#        195985
#        208446
#        223205
#        237091
#        250804
#        264810
#        277779
#        292223
#        305728
#        318706
#        332678
#
# Disc length: 4617 seconds
#
# Revision: 2
# Processed by: cddbd v1.5.2PL0 Copyright (c) Steve Scherf et al.
# Submitted via: ExactAudioCopy v0.99pb4
#
DISCID=72120719
DTITLE=John Lee Hooker - The Boogie Man [Disk 4 of 4] Blues For Big To
DTITLE=wn
DYEAR=2006
DGENRE=Blues
TTITLE0=House Rent Boogie
TTITLE1=Questionnaire Blues
TTITLE2=Real Gone Gal
TTITLE3=My Daddy Was A Jockey
TTITLE4=Catfish 
TTITLE5=Louise 
TTITLE6=High Priced Woman
TTITLE7=Union Station Blues
TTITLE8=Ground Hog Blues
TTITLE9=Leave My Wife Alone
TTITLE10=Ramblin' By Myself
TTITLE11=Four Women In My Life
TTITLE12=I'm In The Mood
TTITLE13=Turn Over A New Leaf
TTITLE14=Walkin' The Boogie
TTITLE15=Sugar Mama
TTITLE16=I Don't Want Your Money
TTITLE17=Bluebird 
TTITLE18=Worried Life Blues
TTITLE19=Rock House Boogie
TTITLE20=Blues For Big Town
TTITLE21=Need Somebody
TTITLE22=Down Child
TTITLE23=Bad Boy
TTITLE24=Time Is Marchin'
EXTD=upc =805520-015448\nrecorded 1950-1955 in Detroit, MI, USA
EXTT0=
EXTT1=
EXTT2=
EXTT3=
EXTT4=
EXTT5=
EXTT6=
EXTT7=
EXTT8=
EXTT9=
EXTT10=
EXTT11=
EXTT12=
EXTT13=
EXTT14=
EXTT15=
EXTT16=
EXTT17=
EXTT18=
EXTT19=
EXTT20=
EXTT21=
EXTT22=
EXTT23=
EXTT24=
PLAYORDER=
